<mxfile host="app.diagrams.net" modified="2024-04-30T17:00:12.601Z" agent="Mozilla/5.0 (Windows NT 10.0; Win64; x64) AppleWebKit/537.36 (KHTML, like Gecko) Chrome/124.0.0.0 Safari/537.36" etag="sRTKLGVCuct0RpbbC_Vz" version="24.3.1" type="device">
  <diagram name="Página-1" id="R1RlGRX0wqXNoeEl1BXv">
    <mxGraphModel dx="1434" dy="772" grid="1" gridSize="10" guides="1" tooltips="1" connect="1" arrows="1" fold="1" page="1" pageScale="1" pageWidth="827" pageHeight="1169" math="0" shadow="0">
      <root>
        <mxCell id="0" />
        <mxCell id="1" parent="0" />
        <mxCell id="s1-X4twhDmvwjqJ7P24T-1" value="&lt;div&gt;Projeto: Consultas&lt;/div&gt;UML (Unified Modeling Language)&lt;div&gt;DCU (Diagrama de Casos de Uso)&lt;/div&gt;" style="text;html=1;align=center;verticalAlign=middle;whiteSpace=wrap;rounded=0;" vertex="1" parent="1">
          <mxGeometry x="304" y="40" width="220" height="60" as="geometry" />
        </mxCell>
        <mxCell id="s1-X4twhDmvwjqJ7P24T-10" style="rounded=0;orthogonalLoop=1;jettySize=auto;html=1;exitX=0.5;exitY=0.5;exitDx=0;exitDy=0;exitPerimeter=0;entryX=0;entryY=0.5;entryDx=0;entryDy=0;" edge="1" parent="1" source="s1-X4twhDmvwjqJ7P24T-2" target="s1-X4twhDmvwjqJ7P24T-5">
          <mxGeometry relative="1" as="geometry" />
        </mxCell>
        <mxCell id="s1-X4twhDmvwjqJ7P24T-2" value="Atendente" style="shape=umlActor;verticalLabelPosition=bottom;verticalAlign=top;html=1;" vertex="1" parent="1">
          <mxGeometry x="74" y="195" width="30" height="60" as="geometry" />
        </mxCell>
        <mxCell id="s1-X4twhDmvwjqJ7P24T-5" value="RF001&lt;div&gt;Cadastro de Pacientes&lt;/div&gt;" style="ellipse;whiteSpace=wrap;html=1;" vertex="1" parent="1">
          <mxGeometry x="140" y="190" width="106" height="70" as="geometry" />
        </mxCell>
        <mxCell id="s1-X4twhDmvwjqJ7P24T-6" value="&lt;div&gt;RF001.1&lt;/div&gt;Validar duplicados pelo CPF" style="ellipse;whiteSpace=wrap;html=1;" vertex="1" parent="1">
          <mxGeometry x="290" y="140" width="106" height="70" as="geometry" />
        </mxCell>
        <mxCell id="s1-X4twhDmvwjqJ7P24T-8" value="&amp;lt;&amp;lt;extends&amp;gt;&amp;gt;" style="rounded=0;orthogonalLoop=1;jettySize=auto;html=1;exitX=0;exitY=0.5;exitDx=0;exitDy=0;entryX=1;entryY=1;entryDx=0;entryDy=0;dashed=1;endArrow=open;endFill=0;" edge="1" parent="1" source="s1-X4twhDmvwjqJ7P24T-7" target="s1-X4twhDmvwjqJ7P24T-5">
          <mxGeometry relative="1" as="geometry" />
        </mxCell>
        <mxCell id="s1-X4twhDmvwjqJ7P24T-7" value="RF001.2&lt;div&gt;Listar todos&lt;/div&gt;" style="ellipse;whiteSpace=wrap;html=1;" vertex="1" parent="1">
          <mxGeometry x="300" y="250" width="106" height="60" as="geometry" />
        </mxCell>
        <mxCell id="s1-X4twhDmvwjqJ7P24T-9" value="&amp;lt;&amp;lt;include&amp;gt;&amp;gt;" style="rounded=0;orthogonalLoop=1;jettySize=auto;html=1;exitX=1;exitY=0;exitDx=0;exitDy=0;entryX=0;entryY=0.5;entryDx=0;entryDy=0;dashed=1;endArrow=open;endFill=0;" edge="1" parent="1" source="s1-X4twhDmvwjqJ7P24T-5" target="s1-X4twhDmvwjqJ7P24T-6">
          <mxGeometry relative="1" as="geometry">
            <mxPoint x="310" y="310" as="sourcePoint" />
            <mxPoint x="240" y="260" as="targetPoint" />
          </mxGeometry>
        </mxCell>
        <mxCell id="s1-X4twhDmvwjqJ7P24T-11" style="rounded=0;orthogonalLoop=1;jettySize=auto;html=1;exitX=0.5;exitY=0.5;exitDx=0;exitDy=0;exitPerimeter=0;entryX=0;entryY=0.5;entryDx=0;entryDy=0;" edge="1" source="s1-X4twhDmvwjqJ7P24T-12" target="s1-X4twhDmvwjqJ7P24T-13" parent="1">
          <mxGeometry relative="1" as="geometry" />
        </mxCell>
        <mxCell id="s1-X4twhDmvwjqJ7P24T-12" value="Atendente" style="shape=umlActor;verticalLabelPosition=bottom;verticalAlign=top;html=1;" vertex="1" parent="1">
          <mxGeometry x="74" y="455" width="30" height="60" as="geometry" />
        </mxCell>
        <mxCell id="s1-X4twhDmvwjqJ7P24T-13" value="RF002&lt;div&gt;Cadastro de Consultas&lt;/div&gt;" style="ellipse;whiteSpace=wrap;html=1;" vertex="1" parent="1">
          <mxGeometry x="140" y="450" width="106" height="70" as="geometry" />
        </mxCell>
        <mxCell id="s1-X4twhDmvwjqJ7P24T-14" value="&lt;div&gt;RF002.1&lt;/div&gt;Verificar se o CPF&lt;div&gt;está cadastrado&lt;/div&gt;" style="ellipse;whiteSpace=wrap;html=1;" vertex="1" parent="1">
          <mxGeometry x="300" y="390" width="106" height="70" as="geometry" />
        </mxCell>
        <mxCell id="s1-X4twhDmvwjqJ7P24T-15" value="&amp;lt;&amp;lt;extends&amp;gt;&amp;gt;" style="rounded=0;orthogonalLoop=1;jettySize=auto;html=1;exitX=0;exitY=0.5;exitDx=0;exitDy=0;entryX=1;entryY=1;entryDx=0;entryDy=0;dashed=1;endArrow=open;endFill=0;" edge="1" source="s1-X4twhDmvwjqJ7P24T-16" target="s1-X4twhDmvwjqJ7P24T-13" parent="1">
          <mxGeometry relative="1" as="geometry" />
        </mxCell>
        <mxCell id="s1-X4twhDmvwjqJ7P24T-16" value="RF002.2&lt;div&gt;Listar todas&lt;/div&gt;" style="ellipse;whiteSpace=wrap;html=1;" vertex="1" parent="1">
          <mxGeometry x="300" y="515" width="106" height="60" as="geometry" />
        </mxCell>
        <mxCell id="s1-X4twhDmvwjqJ7P24T-17" value="&amp;lt;&amp;lt;include&amp;gt;&amp;gt;" style="rounded=0;orthogonalLoop=1;jettySize=auto;html=1;exitX=1;exitY=0;exitDx=0;exitDy=0;entryX=0;entryY=0.5;entryDx=0;entryDy=0;dashed=1;endArrow=open;endFill=0;" edge="1" source="s1-X4twhDmvwjqJ7P24T-13" target="s1-X4twhDmvwjqJ7P24T-14" parent="1">
          <mxGeometry relative="1" as="geometry">
            <mxPoint x="310" y="570" as="sourcePoint" />
            <mxPoint x="240" y="520" as="targetPoint" />
          </mxGeometry>
        </mxCell>
        <mxCell id="s1-X4twhDmvwjqJ7P24T-18" style="rounded=0;orthogonalLoop=1;jettySize=auto;html=1;exitX=0.5;exitY=0.5;exitDx=0;exitDy=0;exitPerimeter=0;entryX=0;entryY=0.5;entryDx=0;entryDy=0;" edge="1" source="s1-X4twhDmvwjqJ7P24T-19" target="s1-X4twhDmvwjqJ7P24T-20" parent="1">
          <mxGeometry relative="1" as="geometry" />
        </mxCell>
        <mxCell id="s1-X4twhDmvwjqJ7P24T-19" value="Atendente" style="shape=umlActor;verticalLabelPosition=bottom;verticalAlign=top;html=1;" vertex="1" parent="1">
          <mxGeometry x="74" y="665" width="30" height="60" as="geometry" />
        </mxCell>
        <mxCell id="s1-X4twhDmvwjqJ7P24T-20" value="RF003&lt;div&gt;Cancelar Consulta&lt;/div&gt;" style="ellipse;whiteSpace=wrap;html=1;" vertex="1" parent="1">
          <mxGeometry x="140" y="660" width="106" height="70" as="geometry" />
        </mxCell>
        <mxCell id="s1-X4twhDmvwjqJ7P24T-21" value="&lt;div&gt;RF003.1&lt;/div&gt;Listar por CPF&lt;div&gt;e mostrar índices&lt;/div&gt;" style="ellipse;whiteSpace=wrap;html=1;" vertex="1" parent="1">
          <mxGeometry x="300" y="600" width="110" height="80" as="geometry" />
        </mxCell>
        <mxCell id="s1-X4twhDmvwjqJ7P24T-23" value="RF003.2&lt;div&gt;Digitar o índice&lt;/div&gt;" style="ellipse;whiteSpace=wrap;html=1;" vertex="1" parent="1">
          <mxGeometry x="300" y="725" width="106" height="60" as="geometry" />
        </mxCell>
        <mxCell id="s1-X4twhDmvwjqJ7P24T-24" value="&amp;lt;&amp;lt;include&amp;gt;&amp;gt;" style="rounded=0;orthogonalLoop=1;jettySize=auto;html=1;exitX=1;exitY=0;exitDx=0;exitDy=0;entryX=0;entryY=0.5;entryDx=0;entryDy=0;dashed=1;endArrow=open;endFill=0;" edge="1" source="s1-X4twhDmvwjqJ7P24T-20" target="s1-X4twhDmvwjqJ7P24T-21" parent="1">
          <mxGeometry relative="1" as="geometry">
            <mxPoint x="310" y="780" as="sourcePoint" />
            <mxPoint x="240" y="730" as="targetPoint" />
          </mxGeometry>
        </mxCell>
        <mxCell id="s1-X4twhDmvwjqJ7P24T-25" value="&amp;lt;&amp;lt;include&amp;gt;&amp;gt;" style="rounded=0;orthogonalLoop=1;jettySize=auto;html=1;exitX=1;exitY=1;exitDx=0;exitDy=0;entryX=0;entryY=0.5;entryDx=0;entryDy=0;dashed=1;endArrow=open;endFill=0;" edge="1" parent="1" source="s1-X4twhDmvwjqJ7P24T-20" target="s1-X4twhDmvwjqJ7P24T-23">
          <mxGeometry relative="1" as="geometry">
            <mxPoint x="240" y="680" as="sourcePoint" />
            <mxPoint x="310" y="650" as="targetPoint" />
          </mxGeometry>
        </mxCell>
        <mxCell id="s1-X4twhDmvwjqJ7P24T-26" style="rounded=0;orthogonalLoop=1;jettySize=auto;html=1;exitX=0.5;exitY=0.5;exitDx=0;exitDy=0;exitPerimeter=0;entryX=0;entryY=0.5;entryDx=0;entryDy=0;" edge="1" source="s1-X4twhDmvwjqJ7P24T-27" target="s1-X4twhDmvwjqJ7P24T-28" parent="1">
          <mxGeometry relative="1" as="geometry" />
        </mxCell>
        <mxCell id="s1-X4twhDmvwjqJ7P24T-27" value="Atendente" style="shape=umlActor;verticalLabelPosition=bottom;verticalAlign=top;html=1;" vertex="1" parent="1">
          <mxGeometry x="70" y="885" width="30" height="60" as="geometry" />
        </mxCell>
        <mxCell id="s1-X4twhDmvwjqJ7P24T-28" value="RF004&lt;div&gt;Reagendar Consulta&lt;/div&gt;" style="ellipse;whiteSpace=wrap;html=1;" vertex="1" parent="1">
          <mxGeometry x="136" y="880" width="106" height="70" as="geometry" />
        </mxCell>
        <mxCell id="s1-X4twhDmvwjqJ7P24T-29" value="&lt;div&gt;RF004.1&lt;/div&gt;Listar por CPF&lt;div&gt;e mostrar índices&lt;/div&gt;" style="ellipse;whiteSpace=wrap;html=1;" vertex="1" parent="1">
          <mxGeometry x="270" y="810" width="110" height="80" as="geometry" />
        </mxCell>
        <mxCell id="s1-X4twhDmvwjqJ7P24T-30" value="RF004.2&lt;div&gt;Digitar o índice&lt;/div&gt;" style="ellipse;whiteSpace=wrap;html=1;" vertex="1" parent="1">
          <mxGeometry x="270" y="950" width="106" height="60" as="geometry" />
        </mxCell>
        <mxCell id="s1-X4twhDmvwjqJ7P24T-31" value="&amp;lt;&amp;lt;include&amp;gt;&amp;gt;" style="rounded=0;orthogonalLoop=1;jettySize=auto;html=1;exitX=1;exitY=0;exitDx=0;exitDy=0;entryX=0;entryY=0.5;entryDx=0;entryDy=0;dashed=1;endArrow=open;endFill=0;" edge="1" source="s1-X4twhDmvwjqJ7P24T-28" target="s1-X4twhDmvwjqJ7P24T-29" parent="1">
          <mxGeometry relative="1" as="geometry">
            <mxPoint x="306" y="1000" as="sourcePoint" />
            <mxPoint x="236" y="950" as="targetPoint" />
          </mxGeometry>
        </mxCell>
        <mxCell id="s1-X4twhDmvwjqJ7P24T-32" value="&amp;lt;&amp;lt;include&amp;gt;&amp;gt;" style="rounded=0;orthogonalLoop=1;jettySize=auto;html=1;exitX=1;exitY=1;exitDx=0;exitDy=0;entryX=0;entryY=0.5;entryDx=0;entryDy=0;dashed=1;endArrow=open;endFill=0;" edge="1" source="s1-X4twhDmvwjqJ7P24T-28" target="s1-X4twhDmvwjqJ7P24T-30" parent="1">
          <mxGeometry relative="1" as="geometry">
            <mxPoint x="236" y="900" as="sourcePoint" />
            <mxPoint x="306" y="870" as="targetPoint" />
          </mxGeometry>
        </mxCell>
        <mxCell id="s1-X4twhDmvwjqJ7P24T-33" value="RF004.3&lt;div&gt;Preencher novas datas e horários&lt;/div&gt;" style="ellipse;whiteSpace=wrap;html=1;" vertex="1" parent="1">
          <mxGeometry x="370" y="880" width="106" height="60" as="geometry" />
        </mxCell>
        <mxCell id="s1-X4twhDmvwjqJ7P24T-34" value="&amp;lt;&amp;lt;include&amp;gt;&amp;gt;" style="rounded=0;orthogonalLoop=1;jettySize=auto;html=1;exitX=1;exitY=0;exitDx=0;exitDy=0;entryX=0;entryY=1;entryDx=0;entryDy=0;dashed=1;endArrow=open;endFill=0;" edge="1" parent="1" source="s1-X4twhDmvwjqJ7P24T-30" target="s1-X4twhDmvwjqJ7P24T-33">
          <mxGeometry relative="1" as="geometry">
            <mxPoint x="236" y="950" as="sourcePoint" />
            <mxPoint x="288" y="1000" as="targetPoint" />
          </mxGeometry>
        </mxCell>
        <mxCell id="s1-X4twhDmvwjqJ7P24T-35" style="rounded=0;orthogonalLoop=1;jettySize=auto;html=1;exitX=0.5;exitY=0.5;exitDx=0;exitDy=0;exitPerimeter=0;entryX=0;entryY=0.5;entryDx=0;entryDy=0;" edge="1" source="s1-X4twhDmvwjqJ7P24T-36" target="s1-X4twhDmvwjqJ7P24T-37" parent="1">
          <mxGeometry relative="1" as="geometry" />
        </mxCell>
        <mxCell id="s1-X4twhDmvwjqJ7P24T-36" value="Atendente" style="shape=umlActor;verticalLabelPosition=bottom;verticalAlign=top;html=1;" vertex="1" parent="1">
          <mxGeometry x="430" y="325" width="30" height="60" as="geometry" />
        </mxCell>
        <mxCell id="s1-X4twhDmvwjqJ7P24T-37" value="RF005&lt;div&gt;Escolher opções do menu&lt;/div&gt;" style="ellipse;whiteSpace=wrap;html=1;" vertex="1" parent="1">
          <mxGeometry x="496" y="320" width="106" height="70" as="geometry" />
        </mxCell>
        <mxCell id="s1-X4twhDmvwjqJ7P24T-39" value="&amp;lt;&amp;lt;extends&amp;gt;&amp;gt;" style="rounded=0;orthogonalLoop=1;jettySize=auto;html=1;exitX=0;exitY=0;exitDx=0;exitDy=0;entryX=0.679;entryY=0.957;entryDx=0;entryDy=0;dashed=1;endArrow=open;endFill=0;entryPerimeter=0;" edge="1" source="s1-X4twhDmvwjqJ7P24T-40" target="s1-X4twhDmvwjqJ7P24T-37" parent="1">
          <mxGeometry relative="1" as="geometry" />
        </mxCell>
        <mxCell id="s1-X4twhDmvwjqJ7P24T-40" value="RF005.6&lt;div&gt;Reagendar Consulta&lt;/div&gt;" style="ellipse;whiteSpace=wrap;html=1;" vertex="1" parent="1">
          <mxGeometry x="586" y="450" width="106" height="60" as="geometry" />
        </mxCell>
        <mxCell id="s1-X4twhDmvwjqJ7P24T-50" value="RF005.1&lt;div&gt;Cadastrar Paciente&lt;/div&gt;" style="ellipse;whiteSpace=wrap;html=1;" vertex="1" parent="1">
          <mxGeometry x="582" y="170" width="110" height="60" as="geometry" />
        </mxCell>
        <mxCell id="s1-X4twhDmvwjqJ7P24T-51" value="RF005.2&lt;div&gt;Listar Paciente&lt;/div&gt;" style="ellipse;whiteSpace=wrap;html=1;" vertex="1" parent="1">
          <mxGeometry x="646" y="220" width="110" height="60" as="geometry" />
        </mxCell>
        <mxCell id="s1-X4twhDmvwjqJ7P24T-52" value="RF005.3&lt;div&gt;Cadastrar Consulta&lt;/div&gt;" style="ellipse;whiteSpace=wrap;html=1;" vertex="1" parent="1">
          <mxGeometry x="666" y="280" width="110" height="60" as="geometry" />
        </mxCell>
        <mxCell id="s1-X4twhDmvwjqJ7P24T-53" value="RF005.4&lt;div&gt;Listar Consulta&lt;/div&gt;" style="ellipse;whiteSpace=wrap;html=1;" vertex="1" parent="1">
          <mxGeometry x="666" y="340" width="110" height="60" as="geometry" />
        </mxCell>
        <mxCell id="s1-X4twhDmvwjqJ7P24T-54" value="RF005.5&lt;div&gt;Cancelar Consulta&lt;/div&gt;" style="ellipse;whiteSpace=wrap;html=1;" vertex="1" parent="1">
          <mxGeometry x="646" y="400" width="110" height="60" as="geometry" />
        </mxCell>
        <mxCell id="s1-X4twhDmvwjqJ7P24T-55" value="RF005.7&lt;div&gt;Sair do Programa&lt;/div&gt;" style="ellipse;whiteSpace=wrap;html=1;" vertex="1" parent="1">
          <mxGeometry x="480" y="455" width="106" height="60" as="geometry" />
        </mxCell>
        <mxCell id="s1-X4twhDmvwjqJ7P24T-56" value="&amp;lt;&amp;lt;extends&amp;gt;&amp;gt;" style="rounded=0;orthogonalLoop=1;jettySize=auto;html=1;exitX=0.5;exitY=0;exitDx=0;exitDy=0;entryX=0.5;entryY=1;entryDx=0;entryDy=0;dashed=1;endArrow=open;endFill=0;" edge="1" parent="1" source="s1-X4twhDmvwjqJ7P24T-55" target="s1-X4twhDmvwjqJ7P24T-37">
          <mxGeometry relative="1" as="geometry">
            <mxPoint x="612" y="469" as="sourcePoint" />
            <mxPoint x="559" y="400" as="targetPoint" />
          </mxGeometry>
        </mxCell>
        <mxCell id="s1-X4twhDmvwjqJ7P24T-57" value="&amp;lt;&amp;lt;extends&amp;gt;&amp;gt;" style="rounded=0;orthogonalLoop=1;jettySize=auto;html=1;exitX=0.045;exitY=0.267;exitDx=0;exitDy=0;entryX=1;entryY=1;entryDx=0;entryDy=0;dashed=1;endArrow=open;endFill=0;exitPerimeter=0;" edge="1" parent="1" source="s1-X4twhDmvwjqJ7P24T-54" target="s1-X4twhDmvwjqJ7P24T-37">
          <mxGeometry relative="1" as="geometry">
            <mxPoint x="612" y="469" as="sourcePoint" />
            <mxPoint x="578" y="397" as="targetPoint" />
          </mxGeometry>
        </mxCell>
        <mxCell id="s1-X4twhDmvwjqJ7P24T-58" value="&amp;lt;&amp;lt;extends&amp;gt;&amp;gt;" style="rounded=0;orthogonalLoop=1;jettySize=auto;html=1;exitX=0;exitY=0.5;exitDx=0;exitDy=0;entryX=1;entryY=0.5;entryDx=0;entryDy=0;dashed=1;endArrow=open;endFill=0;" edge="1" parent="1" source="s1-X4twhDmvwjqJ7P24T-53" target="s1-X4twhDmvwjqJ7P24T-37">
          <mxGeometry relative="1" as="geometry">
            <mxPoint x="661" y="426" as="sourcePoint" />
            <mxPoint x="596" y="390" as="targetPoint" />
          </mxGeometry>
        </mxCell>
        <mxCell id="s1-X4twhDmvwjqJ7P24T-59" value="&amp;lt;&amp;lt;extends&amp;gt;&amp;gt;" style="rounded=0;orthogonalLoop=1;jettySize=auto;html=1;exitX=0;exitY=0.617;exitDx=0;exitDy=0;entryX=0.991;entryY=0.3;entryDx=0;entryDy=0;dashed=1;endArrow=open;endFill=0;exitPerimeter=0;entryPerimeter=0;" edge="1" parent="1" source="s1-X4twhDmvwjqJ7P24T-52" target="s1-X4twhDmvwjqJ7P24T-37">
          <mxGeometry relative="1" as="geometry">
            <mxPoint x="676" y="380" as="sourcePoint" />
            <mxPoint x="612" y="365" as="targetPoint" />
          </mxGeometry>
        </mxCell>
        <mxCell id="s1-X4twhDmvwjqJ7P24T-60" value="&amp;lt;&amp;lt;extends&amp;gt;&amp;gt;" style="rounded=0;orthogonalLoop=1;jettySize=auto;html=1;exitX=0;exitY=1;exitDx=0;exitDy=0;entryX=1;entryY=0;entryDx=0;entryDy=0;dashed=1;endArrow=open;endFill=0;" edge="1" parent="1" source="s1-X4twhDmvwjqJ7P24T-51" target="s1-X4twhDmvwjqJ7P24T-37">
          <mxGeometry relative="1" as="geometry">
            <mxPoint x="676" y="327" as="sourcePoint" />
            <mxPoint x="611" y="351" as="targetPoint" />
          </mxGeometry>
        </mxCell>
        <mxCell id="s1-X4twhDmvwjqJ7P24T-61" value="&amp;lt;&amp;lt;extends&amp;gt;&amp;gt;" style="rounded=0;orthogonalLoop=1;jettySize=auto;html=1;exitX=0.5;exitY=1;exitDx=0;exitDy=0;entryX=0.717;entryY=0.029;entryDx=0;entryDy=0;dashed=1;endArrow=open;endFill=0;entryPerimeter=0;" edge="1" parent="1" source="s1-X4twhDmvwjqJ7P24T-50" target="s1-X4twhDmvwjqJ7P24T-37">
          <mxGeometry relative="1" as="geometry">
            <mxPoint x="672" y="281" as="sourcePoint" />
            <mxPoint x="596" y="340" as="targetPoint" />
          </mxGeometry>
        </mxCell>
      </root>
    </mxGraphModel>
  </diagram>
</mxfile>
